
******Dante´s.Inferno.2010.x264.5_Audio.12_Sub.mkv.Zen_Bud********

Format                           : Matroska
File size                        : 1.28 GiB
Duration                         : 1h 24mn
Overall bit rate                 : 2 174 Kbps
Writing application              : HandBrake 0.9.4

Video

Format                           : AVC
Duration                         : 1h 24mn
Bit rate                         : 1 235 Kbps
Width                            : 720 pixels
Height                           : 576 pixels
Display aspect ratio             : 16:9
Stream size                      : 747 MiB (57%)
Writing library                  : x264 core 79

Audio #1

Format                           : AC-3
Duration                         : 1h 24mn
Bit rate                         : 448 Kbps
Channel(s)                       : 6 channels
Channel positions                : Front: L C R, Side: L R, LFE
Sampling rate                    : 48.0 KHz
Bit depth                        : 16 bits
Stream size                      : 271 MiB (21%)
Language.........................: English

Audio #2

Format                           : MPEG Audio
Codec ID/Hint                    : MP3
Duration                         : 1h 24mn
Bit rate                         : 112 Kbps
Channel(s)                       : 2 channels
Sampling rate                    : 48.0 KHz
Stream size                      : 67.7 MiB (5%)
Language.........................: French

Audio #3

Codec ID/Hint                    : MP3
Duration                         : 1h 24mn
Bit rate                         : 112 Kbps
Channel(s)                       : 2 channels
Sampling rate                    : 48.0 KHz
Stream size                      : 67.7 MiB (5%)
Language.........................: Italian

Audio #4

Format                           : MPEG Audio
Codec ID/Hint                    : MP3
Duration                         : 1h 24mn
Bit rate                         : 112 Kbps
Channel(s)                       : 2 channels
Sampling rate                    : 48.0 KHz
Stream size                      : 67.7 MiB (5%)
Language.........................: German

Audio #5

Format                           : MPEG Audio
Codec ID/Hint                    : MP3
Duration                         : 1h 24mn
Bit rate                         : 112 Kbps
Channel(s)                       : 2 channels
Sampling rate                    : 48.0 KHz
Stream size                      : 67.7 MiB (5%)
Language.........................: Spanish

Text #1
Language                         : English

Text #2
Language                         : French

Text #3
Language                         : Italian

Text #4
Language                         : German

Text #5
Language                         : Spanish

Text #6
Language                         : Portuguese

Text #7
Language                         : Dutch

Text #8
Language                         : Norwegian

Text #9
Language                         : Swedish

Text #10
Language                         : Finnish

Text #11
Language                         : Danish

Text #12
Language                         : Turkish

Menu
00:00:00.000                     : Chapter 1
00:09:06.400                     : Chapter 2

